{"title":"Ambush at Dark Canyon  (Western 2012)  Don Swayze, Ernie Hudson ","uid":9541007,"size":527566817,"categoryP":"video","categoryS":"movies","magnet":"?xt=urn:btih:0956f029332604a9ae08772453465b0434ed2079&amp;dn=Ambush+at+Dark+Canyon++%28Western+2012%29++Don+Swayze%2C+Ernie+Hudson+&amp;tr=udp%3A%2F%2Ftracker.openbittorrent.com%3A80&amp;tr=udp%3A%2F%2Fopen.demonii.com%3A1337&amp;tr=udp%3A%2F%2Ftracker.coppersurfer.tk%3A6969&amp;tr=udp%3A%2F%2Fexodus.desync.com%3A6969","seeders":1,"leechers":0,"uploader":"BurtonW","files":1,"time":1391045367,"description":" &lt;a href=&quot;http://www.imdb.com/title/tt1887923/?ref_=fn_al_tt_1&quot; rel=&quot;nofollow&quot; target=&quot;_NEW&quot;&gt;http://www.imdb.com/title/tt1887923/?ref_=fn_al_tt_1&lt;/a&gt;\n\n\nA good quality film.\n\n\nEnglish subtitles!\n\n\nStoryline:\n\n   U.S. Marshall Duke Donovan is imprisoned, accused of being an accomplice in a bank robbery. After discovering that his partner is planning to kill his wife, he must escape prison in time to save his wife and clear his name.\n\n\n                                Technical info:\n\n\nGeneral:\n\nComplete name:                  : Ambush at Dark Canyon  (Western 2012)  Don Swayze, Ernie Hudson &amp; Sydney Penny.m4v\n\nFormat                         : MPEG-4\nFormat profile                 : Base Media / Version 2\nCodec ID                       : mp42\nFile size                      : 503 MiB\nDuration                       : 1h 35mn\nOverall bit rate mode          : Variable\nOverall bit rate               : 740 Kbps\nEncoded date                   : UTC 2014-01-29 01:26:11\nTagged date                    : UTC 2014-01-29 04:49:48\n\n\nVideo:\n\nID                             : 1\nFormat                         : AVC\nFormat/Info                    : Advanced Video Codec\nFormat profile                 : &lt;a class=&quot;__cf_email__&quot; href=&quot;/cdn-cgi/l/email-protection&quot; data-cfemail=&quot;4a072b23240a067e647a&quot;&gt;[email&amp;#160;protected]&lt;/a&gt;&lt;script cf-hash='f9e31' type=&quot;text/javascript&quot;&gt;\n/* &lt;![CDATA[ */!function(){try{var t=&quot;currentScript&quot;in document?document.currentScript:function(){for(var t=document.getElementsByTagName(&quot;script&quot;),e=t.length;e--;)if(t[e].getAttribute(&quot;cf-hash&quot;))return t[e]}();if(t&amp;&amp;t.previousSibling){var e,r,n,i,c=t.previousSibling,a=c.getAttribute(&quot;data-cfemail&quot;);if(a){for(e=&quot;&quot;,r=parseInt(a.substr(0,2),16),n=2;a.length-n;n+=2)i=parseInt(a.substr(n,2),16)^r,e+=String.fromCharCode(i);e=document.createTextNode(e),c.parentNode.replaceChild(e,c)}}}catch(u){}}();/* ]]&gt; */&lt;/script&gt;\nFormat settings, CABAC         : Yes\nFormat settings, ReFrames      : 16 frames\nCodec ID                       : avc1\nCodec ID/Info                  : Advanced Video Coding\nDuration                       : 1h 35mn\nBit rate mode                  : Variable\nBit rate                       : 576 Kbps\nWidth                          : 720 pixels\nHeight                         : 304 pixels\nDisplay aspect ratio           : 2.35:1\nFrame rate mode                : Variable\nFrame rate                     : 23.976 fps\nMinimum frame rate             : 23.974 fps\nMaximum frame rate             : 23.981 fps\nColor space                    : YUV\nChroma subsampling             : 4:2:0\nBit depth                      : 8 bits\nScan type                      : Progressive\nBits/(Pixel*Frame)             : 0.110\nStream size                    : 391 MiB (78%)\nWriting library                : x264 core 130 r2273 b3065e6\nEncoding settings              : Deleted\nEncoded date                   : UTC 2014-01-29 01:26:11\nTagged date                    : UTC 2014-01-29 04:49:48\nColor primaries                : BT.601 NTSC\nTransfer characteristics       : BT.709\nMatrix coefficients            : BT.601\n\nAudio:\n\nID                             : 2\nFormat                         : AAC\nFormat/Info                    : Advanced Audio Codec\nFormat profile                 : LC\nCodec ID                       : 40\nDuration                       : 1h 35mn\nBit rate mode                  : Variable\nBit rate                       : 160 Kbps\nMaximum bit rate               : 304 Kbps\nChannel(s)                     : 2 channels\nChannel positions              : Front: L R\nSampling rate                  : 48.0 KHz\nCompression mode               : Lossy\nDelay relative to video        : 83ms\nStream size                    : 109 MiB (22%)\nEncoded date                   : UTC 2014-01-29 01:26:11\nTagged date                    : UTC 2014-01-29 04:49:47\n\nText:\n\nID                             : 3\nFormat                         : Timed text\nMuxing mode                    : sbtl\nCodec ID                       : tx3g\nDuration                       : 1h 33mn\nBit rate mode                  : Variable\nBit rate                       : 64 bps\nDelay relative to video        : 83ms\nStream size                    : 43.7 KiB (0%)\nLanguage                       : English\nEncoded date                   : UTC 2014-01-29 01:26:11\nTagged date                    : UTC 2014-01-29 04:49:47\n\n","torrent":{"xt":"urn:btih:0956f029332604a9ae08772453465b0434ed2079","amp;dn":"Ambush+at+Dark+Canyon++%28Western+2012%29++Don+Swayze%2C+Ernie+Hudson+","amp;tr":["udp%3A%2F%2Ftracker.openbittorrent.com%3A80","udp%3A%2F%2Fopen.demonii.com%3A1337","udp%3A%2F%2Ftracker.coppersurfer.tk%3A6969","udp%3A%2F%2Fexodus.desync.com%3A6969"],"infoHash":"0956f029332604a9ae08772453465b0434ed2079","infoHashBuffer":{"type":"Buffer","data":[9,86,240,41,51,38,4,169,174,8,119,36,83,70,91,4,52,237,32,121]},"announce":[],"urlList":[]}}